<?xml version="1.0" encoding="UTF-8"?>
<svg xmlns="http://www.w3.org/2000/svg" xmlns:xlink="http://www.w3.org/1999/xlink" width="px" height="px" viewBox="0 0 384 384" version="1.1">
<g id="surface1">
<path style=" stroke:none;fill-rule:nonzero;fill:currentColor;fill-opacity:1;" d="M 371.925781 124.949219 C 374.324219 131.476562 372.300781 138.75 367.125 143.398438 L 334.648438 172.949219 C 335.476562 179.175781 335.925781 185.550781 335.925781 192 C 335.925781 198.449219 335.476562 204.824219 334.648438 211.050781 L 367.125 240.601562 C 372.300781 245.25 374.324219 252.523438 371.925781 259.050781 C 368.625 267.976562 364.648438 276.523438 360.074219 284.773438 L 356.550781 290.851562 C 351.601562 299.101562 346.050781 306.898438 339.976562 314.25 C 335.550781 319.648438 328.199219 321.449219 321.601562 319.351562 L 279.824219 306.074219 C 269.773438 313.800781 258.675781 320.25 246.824219 325.125 L 237.449219 367.949219 C 235.949219 374.773438 230.699219 380.175781 223.800781 381.300781 C 213.449219 383.023438 202.800781 383.925781 191.925781 383.925781 C 181.050781 383.925781 170.398438 383.023438 160.050781 381.300781 C 153.148438 380.175781 147.898438 374.773438 146.398438 367.949219 L 137.023438 325.125 C 125.175781 320.25 114.074219 313.800781 104.023438 306.074219 L 62.324219 319.425781 C 55.726562 321.523438 48.375 319.648438 43.949219 314.324219 C 37.875 306.976562 32.324219 299.175781 27.375 290.925781 L 23.851562 284.851562 C 19.273438 276.601562 15.300781 268.050781 12 259.125 C 9.601562 252.601562 11.625 245.324219 16.800781 240.675781 L 49.273438 211.125 C 48.449219 204.824219 48 198.449219 48 192 C 48 185.550781 48.449219 179.175781 49.273438 172.949219 L 16.800781 143.398438 C 11.625 138.75 9.601562 131.476562 12 124.949219 C 15.300781 116.023438 19.273438 107.476562 23.851562 99.226562 L 27.375 93.148438 C 32.324219 84.898438 37.875 77.101562 43.949219 69.75 C 48.375 64.351562 55.726562 62.550781 62.324219 64.648438 L 104.101562 77.925781 C 114.148438 70.199219 125.25 63.75 137.101562 58.875 L 146.476562 16.050781 C 147.976562 9.226562 153.226562 3.824219 160.125 2.699219 C 170.476562 0.898438 181.125 0 192 0 C 202.875 0 213.523438 0.898438 223.875 2.625 C 230.773438 3.75 236.023438 9.148438 237.523438 15.976562 L 246.898438 58.800781 C 258.75 63.675781 269.851562 70.125 279.898438 77.851562 L 321.675781 64.574219 C 328.273438 62.476562 335.625 64.351562 340.050781 69.675781 C 346.125 77.023438 351.675781 84.824219 356.625 93.074219 L 360.148438 99.148438 C 364.726562 107.398438 368.699219 115.949219 372 124.875 Z M 192 252 C 225.148438 252 252 225.148438 252 192 C 252 158.851562 225.148438 132 192 132 C 158.851562 132 132 158.851562 132 192 C 132 225.148438 158.851562 252 192 252 Z M 192 252 "/>
</g>
</svg>
