<?xml version="1.0" encoding="UTF-8"?>
<svg xmlns="http://www.w3.org/2000/svg" xmlns:xlink="http://www.w3.org/1999/xlink" width="px" height="px" viewBox="0 0 336 384" version="1.1">
<g id="surface1">
<path style=" stroke:none;fill-rule:nonzero;fill:currentColor;fill-opacity:1;" d="M 101.398438 13.273438 C 105.449219 5.101562 113.773438 0 122.851562 0 L 213.148438 0 C 222.226562 0 230.550781 5.101562 234.601562 13.273438 L 240 24 L 312 24 C 325.273438 24 336 34.726562 336 48 C 336 61.273438 325.273438 72 312 72 L 24 72 C 10.726562 72 0 61.273438 0 48 C 0 34.726562 10.726562 24 24 24 L 96 24 Z M 24 96 L 312 96 L 312 336 C 312 362.476562 290.476562 384 264 384 L 72 384 C 45.523438 384 24 362.476562 24 336 Z M 96 144 C 89.398438 144 84 149.398438 84 156 L 84 324 C 84 330.601562 89.398438 336 96 336 C 102.601562 336 108 330.601562 108 324 L 108 156 C 108 149.398438 102.601562 144 96 144 Z M 168 144 C 161.398438 144 156 149.398438 156 156 L 156 324 C 156 330.601562 161.398438 336 168 336 C 174.601562 336 180 330.601562 180 324 L 180 156 C 180 149.398438 174.601562 144 168 144 Z M 240 144 C 233.398438 144 228 149.398438 228 156 L 228 324 C 228 330.601562 233.398438 336 240 336 C 246.601562 336 252 330.601562 252 324 L 252 156 C 252 149.398438 246.601562 144 240 144 Z M 240 144 "/>
</g>
</svg>
