<?xml version="1.0" encoding="UTF-8"?>
<svg xmlns="http://www.w3.org/2000/svg" xmlns:xlink="http://www.w3.org/1999/xlink" width="px" height="px" viewBox="0 0 480 384" version="1.1">
<g id="surface1">
<path style=" stroke:none;fill-rule:nonzero;fill:currentColor;fill-opacity:1;" d="M 168 192 C 221.023438 192 264 149.023438 264 96 C 264 42.976562 221.023438 0 168 0 C 114.976562 0 72 42.976562 72 96 C 72 149.023438 114.976562 192 168 192 Z M 133.726562 228 C 59.851562 228 0 287.851562 0 361.726562 C 0 374.023438 9.976562 384 22.273438 384 L 313.726562 384 C 321.226562 384 327.824219 380.324219 331.875 374.625 L 257.476562 300.226562 C 246.300781 289.050781 240 273.898438 240 258.148438 L 240 233.398438 C 228.074219 229.875 215.398438 228 202.273438 228 Z M 288 168 C 274.726562 168 264 178.726562 264 192 L 264 254.023438 C 264 266.773438 269.023438 279 278.023438 288 L 358.574219 368.476562 C 372.601562 382.5 395.398438 382.5 409.5 368.476562 L 464.550781 313.425781 C 478.574219 299.398438 478.574219 276.601562 464.550781 262.5 L 384 182.023438 C 375 173.023438 362.773438 168 350.023438 168 Z M 342 228 C 342 237.976562 333.976562 246 324 246 C 314.023438 246 306 237.976562 306 228 C 306 218.023438 314.023438 210 324 210 C 333.976562 210 342 218.023438 342 228 Z M 342 228 "/>
</g>
</svg>
