<?xml version="1.0" encoding="UTF-8" standalone="no"?>
<!-- Created with Inkscape (http://www.inkscape.org/) -->

<svg
   version="1.1"
   id="svg2"
   xml:space="preserve"
   width="1333.3333"
   height="1066.6667"
   viewBox="0 0 1333.3333 1066.6667"
   sodipodi:docname="fast.eps"
   xmlns:inkscape="http://www.inkscape.org/namespaces/inkscape"
   xmlns:sodipodi="http://sodipodi.sourceforge.net/DTD/sodipodi-0.dtd"
   xmlns="http://www.w3.org/2000/svg"
   xmlns:svg="http://www.w3.org/2000/svg"><defs
     id="defs6"><clipPath
       clipPathUnits="userSpaceOnUse"
       id="clipPath18"><path
         d="m 5176,3539.8 c 0,869.57 704.94,1574.51 1574.51,1574.51 530.53,0 999.42,-262.67 1284.69,-664.75 -146.5,597.91 -592.12,1026.81 -1377.1,913.24 -542.38,-78.48 -1276.48,-46.08 -1513.53,538.23 -46.43,-327.63 112.84,-675.56 391.17,-854.53 -200.75,-112.78 -449.55,-12.46 -634.42,86.38 -278.03,148.64 -619.15,326.74 -943.72,257.94 -242.43,-51.39 -432.23,-225.43 -607.55,-389.6 220.23,125.92 501.26,117.83 733.45,15.62 232.17,-102.22 419.06,-289.19 560.04,-500.09 -223.26,52.21 -445.46,111.69 -675.67,118.01 -239.65,6.59 -474.27,-65.11 -696.86,-146.78 -443.42,-162.69 -1071.2,-455.23 -1484.64,-68.35 136.82,-298.59 363.66,-557.75 649.55,-719.44 385.6,-218.1 803.45,-221.23 1211.7,-72.4 195.22,71.17 391.49,152.61 599.03,162.74 207.53,10.14 434.07,-67.5 538.57,-247.09 -107.21,101.73 -268.47,129.87 -414.43,106.6 -222.81,-35.53 -407.08,-173.52 -610.18,-261.15 -226.37,-97.66 -478.87,-133.93 -723.57,-103.94 527.31,-361.59 968.15,-343.51 1380.35,-232.94 116.41,31.23 233.25,69.81 353.77,68.24 120.52,-1.58 248.91,-52.55 305.75,-158.83 -112.69,93.24 -282.65,67.05 -415.59,6.06 -132.95,-60.99 -254.91,-152.08 -398.55,-179.65 181.68,-347.22 441.62,5.56 1059.87,-366.85 182.28,-109.79 395.97,-183.7 603.95,-222.96 C 5476.32,2475.11 5176,2972.32 5176,3539.8 Z"
         id="path16" /></clipPath><linearGradient
       x1="0"
       y1="0"
       x2="1"
       y2="0"
       gradientUnits="userSpaceOnUse"
       gradientTransform="matrix(-4040.26,-1581.94,-1581.94,4040.26,8034.9,5028.12)"
       spreadMethod="pad"
       id="linearGradient26"><stop
         style="stop-opacity:1;stop-color:#f48516"
         offset="0"
         id="stop20" /><stop
         style="stop-opacity:1;stop-color:#e8202a"
         offset="0.612903"
         id="stop22" /><stop
         style="stop-opacity:1;stop-color:#be1e2f"
         offset="1"
         id="stop24" /></linearGradient></defs><sodipodi:namedview
     id="namedview4"
     pagecolor="#ffffff"
     bordercolor="#666666"
     borderopacity="1.0"
     inkscape:pageshadow="2"
     inkscape:pageopacity="0.0"
     inkscape:pagecheckerboard="0" /><g
     id="g8"
     inkscape:groupmode="layer"
     inkscape:label="ink_ext_XXXXXX"
     transform="matrix(1.3333333,0,0,-1.3333333,0,1066.6667)"><g
       id="g10"
       transform="scale(0.1)"><g
         id="g12"><g
           id="g14"
           clip-path="url(#clipPath18)"><path
             d="m 5176,3539.8 c 0,869.57 704.94,1574.51 1574.51,1574.51 530.53,0 999.42,-262.67 1284.69,-664.75 -146.5,597.91 -592.12,1026.81 -1377.1,913.24 -542.38,-78.48 -1276.48,-46.08 -1513.53,538.23 -46.43,-327.63 112.84,-675.56 391.17,-854.53 -200.75,-112.78 -449.55,-12.46 -634.42,86.38 -278.03,148.64 -619.15,326.74 -943.72,257.94 -242.43,-51.39 -432.23,-225.43 -607.55,-389.6 220.23,125.92 501.26,117.83 733.45,15.62 232.17,-102.22 419.06,-289.19 560.04,-500.09 -223.26,52.21 -445.46,111.69 -675.67,118.01 -239.65,6.59 -474.27,-65.11 -696.86,-146.78 -443.42,-162.69 -1071.2,-455.23 -1484.64,-68.35 136.82,-298.59 363.66,-557.75 649.55,-719.44 385.6,-218.1 803.45,-221.23 1211.7,-72.4 195.22,71.17 391.49,152.61 599.03,162.74 207.53,10.14 434.07,-67.5 538.57,-247.09 -107.21,101.73 -268.47,129.87 -414.43,106.6 -222.81,-35.53 -407.08,-173.52 -610.18,-261.15 -226.37,-97.66 -478.87,-133.93 -723.57,-103.94 527.31,-361.59 968.15,-343.51 1380.35,-232.94 116.41,31.23 233.25,69.81 353.77,68.24 120.52,-1.58 248.91,-52.55 305.75,-158.83 -112.69,93.24 -282.65,67.05 -415.59,6.06 -132.95,-60.99 -254.91,-152.08 -398.55,-179.65 181.68,-347.22 441.62,5.56 1059.87,-366.85 182.28,-109.79 395.97,-183.7 603.95,-222.96 C 5476.32,2475.11 5176,2972.32 5176,3539.8"
             style="fill:url(#linearGradient26);fill-opacity:1;fill-rule:nonzero;stroke:none"
             id="path28" /></g></g><path
         d="m 6944.62,2168.18 c -700.87,0 -1269.02,568.16 -1269.02,1269.02 0,700.85 568.15,1269.01 1269.02,1269.01 684.27,0 1241.75,-541.67 1267.75,-1219.57 0.56,16.44 1.26,32.86 1.26,49.44 0,793.7 -643.42,1437.12 -1437.12,1437.12 -793.7,0 -1437.12,-643.42 -1437.12,-1437.12 0,-793.69 643.42,-1437.11 1437.12,-1437.11 273.13,0 528.46,76.21 745.9,208.5 -173.34,-88.84 -369.63,-139.29 -577.79,-139.29"
         style="fill:#211c1d;fill-opacity:1;fill-rule:nonzero;stroke:none"
         id="path30" /><path
         d="m 6826.32,3256.14 c -30.69,30.7 -30.69,80.48 0,111.18 30.7,30.69 80.48,30.69 111.18,-0.01 30.69,-30.69 30.7,-80.47 0,-111.17 -30.7,-30.7 -80.48,-30.7 -111.18,0 z m 218.3,-18.19 773.15,1009.63 -1009.64,-773.14 -0.07,-8.18 c -12.23,-7.11 -23.82,-15.71 -34.29,-26.18 -65.3,-65.3 -65.3,-171.19 0,-236.49 65.31,-65.31 171.19,-65.31 236.49,0 10.47,10.47 19.08,22.06 26.19,34.28 l 8.17,0.08"
         style="fill:#211c1d;fill-opacity:1;fill-rule:nonzero;stroke:none"
         id="path32" /></g></g></svg>
