<?xml version="1.0" encoding="utf-8"?>
<svg viewBox="-45 0 926.877 925" width="926.877" height="866.191" xmlns="http://www.w3.org/2000/svg">
  <g id="g8" transform="matrix(1.333333, 0, 0, -1.333333, -2870.55282, 1798.408013)">
    <g id="g10" transform="scale(0.1)">
      <path d="M 30000,0 H 0 V 20000 H 30000 V 0" style="fill:#ffffff;fill-opacity:1;fill-rule:nonzero;stroke:none" id="path12"/>
      <path d="M 21124.3,15596.4 H 9946.56 c -591.44,0 -1070.9,479.4 -1070.9,1070.9 v 1219.2 H 20053.4 c 591.5,0 1070.9,-479.5 1070.9,-1070.9 v -1219.2" style="fill:#b2b3b5;fill-opacity:1;fill-rule:nonzero;stroke:none" id="path14"/>
      <path d="m 11141.3,17177.9 v -873 h -112.7 v 873 h 112.7" style="fill:#282f39;fill-opacity:1;fill-rule:nonzero;stroke:none" id="path16"/>
      <path d="m 11948.4,16333.4 c -41.5,-20.7 -124.4,-41.5 -230.6,-41.5 -246.1,0 -431.3,155.5 -431.3,441.8 0,273.3 185.2,458.5 456,458.5 108.8,0 177.4,-23.3 207.2,-38.9 l -27.2,-91.9 c -42.7,20.7 -103.6,36.2 -176.2,36.2 -204.6,0 -340.6,-130.8 -340.6,-360.1 0,-213.7 123,-351 335.4,-351 68.7,0 138.7,14.3 184,36.3 l 23.3,-89.4" style="fill:#282f39;fill-opacity:1;fill-rule:nonzero;stroke:none" id="path18"/>
      <path d="m 12131.4,16736.2 c 0,-186.5 101.1,-353.6 278.5,-353.6 178.8,0 279.8,164.5 279.8,362.7 0,173.6 -90.7,354.9 -278.5,354.9 -186.5,0 -279.8,-172.3 -279.8,-364 z m 677.5,14.3 c 0,-300.5 -182.7,-459.8 -405.5,-459.8 -230.5,0 -392.4,178.7 -392.4,443 0,277.1 172.2,458.5 405.4,458.5 238.3,0 392.5,-182.6 392.5,-441.7" style="fill:#282f39;fill-opacity:1;fill-rule:nonzero;stroke:none" id="path20"/>
      <path d="m 12955.7,16304.9 v 873 h 123.1 l 279.7,-441.7 c 64.8,-102.3 115.4,-194.3 156.8,-283.6 l 2.6,1.3 c -10.4,116.5 -13,222.8 -13,358.8 v 365.2 h 106.2 v -873 h -113.9 l -277.2,443 c -60.9,97.1 -119.2,196.9 -163.3,291.4 l -3.8,-1.3 c 6.5,-110.1 9,-215 9,-360.1 v -373 h -106.2" style="fill:#282f39;fill-opacity:1;fill-rule:nonzero;stroke:none" id="path22"/>
      <path d="m 13792.9,16442.2 c 50.6,-31.1 124.4,-57 202.1,-57 115.3,0 182.7,60.9 182.7,149 0,81.6 -46.7,128.2 -164.6,173.5 -142.4,50.6 -230.5,124.4 -230.5,247.4 0,136.1 112.7,237.1 282.4,237.1 89.3,0 154.1,-20.7 193,-42.8 l -31.1,-91.9 c -28.5,15.5 -86.8,41.4 -165.8,41.4 -119.2,0 -164.5,-71.2 -164.5,-130.8 0,-81.6 53.1,-121.8 173.6,-168.4 147.6,-57 222.7,-128.2 222.7,-256.5 0,-134.7 -99.7,-251.3 -305.6,-251.3 -84.2,0 -176.2,24.7 -222.9,55.8 l 28.5,94.5" style="fill:#282f39;fill-opacity:1;fill-rule:nonzero;stroke:none" id="path24"/>
      <path d="m 15449,16714.2 h -339.4 v -314.7 h 378.2 v -94.6 h -490.9 v 873 h 471.5 v -94.5 h -358.8 v -275.9 h 339.4 v -93.3" style="fill:#282f39;fill-opacity:1;fill-rule:nonzero;stroke:none" id="path26"/>
      <path d="m 15747.2,16746.6 c 24.6,-6.5 55.7,-9.1 93.3,-9.1 136,0 218.9,66.1 218.9,186.6 0,115.2 -81.6,170.9 -206,170.9 -49.2,0 -86.8,-3.8 -106.2,-9 z m -112.7,421 c 54.4,9 125.7,16.8 216.3,16.8 111.4,0 193,-25.9 244.8,-72.5 48,-41.5 76.5,-104.9 76.5,-182.7 0,-79 -23.3,-141.1 -67.4,-186.5 -59.6,-63.5 -156.7,-95.8 -266.8,-95.8 -33.7,0 -64.8,1.3 -90.7,7.7 v -349.7 h -112.7 v 862.7" style="fill:#282f39;fill-opacity:1;fill-rule:nonzero;stroke:none" id="path28"/>
      <path d="m 16308.5,16442.2 c 50.5,-31.1 124.3,-57 202,-57 115.3,0 182.7,60.9 182.7,149 0,81.6 -46.7,128.2 -164.5,173.5 -142.5,50.6 -230.6,124.4 -230.6,247.4 0,136.1 112.7,237.1 282.4,237.1 89.4,0 154.1,-20.7 193,-42.8 l -31.1,-91.9 c -28.5,15.5 -86.8,41.4 -165.8,41.4 -119.2,0 -164.5,-71.2 -164.5,-130.8 0,-81.6 53.1,-121.8 173.6,-168.4 147.6,-57 222.7,-128.2 222.7,-256.5 0,-134.7 -99.7,-251.3 -305.6,-251.3 -84.2,0 -176.2,24.7 -222.8,55.8 l 28.5,94.5" style="fill:#282f39;fill-opacity:1;fill-rule:nonzero;stroke:none" id="path30"/>
      <path d="m 17994.4,17040.6 h -2.6 l -146.4,-79 -22,86.8 184,98.5 h 97.1 v -842 h -110.1 v 735.7" style="fill:#282f39;fill-opacity:1;fill-rule:nonzero;stroke:none" id="path32"/>
      <path d="m 18514.2,16722 c 0,-218.9 67.3,-343.3 170.9,-343.3 116.6,0 172.3,136 172.3,351.1 0,207.2 -53.1,343.2 -171,343.2 -99.7,0 -172.2,-121.7 -172.2,-351 z m 457.2,12.9 c 0,-286.2 -106.2,-444.2 -292.7,-444.2 -164.5,0 -275.9,154.1 -278.5,432.6 0,282.4 121.7,437.8 292.7,437.8 177.5,0 278.5,-158 278.5,-426.2" style="fill:#282f39;fill-opacity:1;fill-rule:nonzero;stroke:none" id="path34"/>
      <path d="m 27511.9,9220.9 c 0,-36.4 -11.5,-72.5 -32.5,-100.9 -870.7,-1186.9 -2215.6,-2083 -2607.1,-2329.5 -56,-35.2 -128.5,-35.2 -184.5,0.3 -389.2,246.4 -1725.8,1142.5 -2577.8,2329.2 -20.6,28.6 -31.6,63.2 -31.6,99.7 v 2788.4 c 0,94.8 77,172.2 171.4,172.4 1035.2,1.5 2042.2,679.8 2427,971.2 31.4,23.5 68,35.4 104.7,35.4 36.1,0 72.4,-11.4 103.1,-34.5 392.6,-291.7 1417.5,-970.6 2455.9,-972.1 94.6,-0.2 171.4,-77.6 171.4,-172.4 z m -171.2,3108.1 c -994.1,1.3 -1986.7,659.8 -2367.4,942.7 -113.9,84.9 -272.8,84 -386,-1.6 -373.1,-282.6 -1347.5,-939.6 -2337.7,-941.1 -176.3,-0.2 -319.7,-144.2 -319.7,-320.9 V 9219.7 c 0,-67.9 20.6,-132.2 59.6,-186.3 867.5,-1208.5 2223.8,-2118.1 2619,-2368 52.1,-33.1 112,-49.6 171.8,-49.6 59.6,0 119.2,16.3 171.1,49.2 397.1,249.8 1761.7,1159.1 2647.6,2367.2 39.7,53.8 61.3,120.9 61.3,188.7 v 2787.2 c 0,176.7 -143.4,320.7 -319.6,320.9" style="fill:#202831;fill-opacity:1;fill-rule:nonzero;stroke:none" id="path36"/>
      <path d="m 26662,10203.2 c 0,-41.2 -33.3,-74.3 -74.3,-74.3 -40.9,0 -74.2,33.1 -74.2,74.3 v 990 c 0,91.6 -73.2,166.9 -166.7,171.8 -602.3,30.8 -1172.9,380.9 -1459.4,586.9 -60.7,43.7 -141.9,43.2 -202.4,-0.9 -281,-205.7 -842.2,-555.2 -1441.8,-586 -93.3,-4.9 -166.3,-80.2 -166.3,-171.4 V 9525.9 c 0,-37.3 11.9,-73.1 34.4,-103.7 512.8,-695.9 1273.2,-1227.8 1576.5,-1424.2 56.8,-36.9 130.4,-36.9 187.5,0 193.6,125.3 576,388.3 962.1,741.3 30.1,27.5 77.1,25.4 104.7,-4.9 27.8,-30.1 25.7,-77.2 -4.6,-104.8 -393.9,-360.1 -783.9,-628.4 -981.6,-756.3 -52.8,-34.4 -113.7,-51.6 -174.4,-51.6 -60.8,0 -121.5,17.2 -174.5,51.6 -310.1,200.8 -1087.8,745.3 -1615.1,1460.9 -41.6,56.2 -63.4,122.6 -63.4,191.7 v 1667.7 c 0,170.3 134.9,310.8 307.1,319.7 561.2,28.8 1094.2,361.6 1361.8,557.6 112.5,82 263.7,82.7 376.7,1.7 273.2,-196.7 815.9,-530.5 1380.3,-559.3 172.5,-8.9 307.6,-149.4 307.6,-320.1 z m -553.4,768.2 -1195.4,-1427 c -25.4,-30.3 -62.7,-48 -102.4,-48.4 h -1 c -39.3,0 -76.6,17.2 -102.3,46.9 l -599.4,693.3 c -26.7,31.2 -23.3,78.1 7.7,104.8 31.2,26.7 78,23.4 104.7,-7.6 l 589,-681.5 1185.4,1414.9 c 26.3,31.4 73.2,35.4 104.6,9.1 31.4,-26.3 35.4,-73.1 9.1,-104.5 z m 1231.9,1209.1 c -1038.4,1.5 -2063.3,680.4 -2455.9,972.1 -30.7,23.1 -67,34.5 -103.1,34.5 -36.7,0 -73.3,-11.9 -104.7,-35.4 -384.8,-291.4 -1391.8,-969.7 -2427,-971.2 -94.4,-0.2 -171.4,-77.6 -171.4,-172.4 V 9219.7 c 0,-36.5 11,-71.1 31.6,-99.7 852,-1186.7 2188.6,-2082.8 2577.8,-2329.2 56,-35.5 128.5,-35.5 184.5,-0.3 391.5,246.5 1736.4,1142.6 2607.1,2329.5 21,28.4 32.5,64.5 32.5,100.9 v 2787.2 c 0,94.8 -76.8,172.2 -171.4,172.4" style="fill:#ffe59b;fill-opacity:1;fill-rule:nonzero;stroke:none" id="path38"/>
      <path d="m 26662,11193.2 v -990 c 0,-41.2 -33.3,-74.3 -74.3,-74.3 -40.9,0 -74.2,33.1 -74.2,74.3 v 990 c 0,91.6 -73.2,166.9 -166.7,171.8 -602.3,30.8 -1172.9,380.9 -1459.4,586.9 -60.7,43.7 -141.9,43.2 -202.4,-0.9 -281,-205.7 -842.2,-555.2 -1441.8,-586 -93.3,-4.9 -166.3,-80.2 -166.3,-171.4 V 9525.9 c 0,-37.3 11.9,-73.1 34.4,-103.7 512.8,-695.9 1273.2,-1227.8 1576.5,-1424.2 56.8,-36.9 130.4,-36.9 187.5,0 193.6,125.3 576,388.3 962.1,741.3 30.1,27.5 77.1,25.4 104.7,-4.9 27.8,-30.1 25.7,-77.2 -4.6,-104.8 -393.9,-360.1 -783.9,-628.4 -981.6,-756.3 -52.8,-34.4 -113.7,-51.6 -174.4,-51.6 -60.8,0 -121.5,17.2 -174.5,51.6 -310.1,200.8 -1087.8,745.3 -1615.1,1460.9 -41.6,56.2 -63.4,122.6 -63.4,191.7 v 1667.7 c 0,170.3 134.9,310.8 307.1,319.7 561.2,28.8 1094.2,361.6 1361.8,557.6 112.5,82 263.7,82.7 376.7,1.7 273.2,-196.7 815.9,-530.5 1380.3,-559.3 172.5,-8.9 307.6,-149.4 307.6,-320.1" style="fill:#202831;fill-opacity:1;fill-rule:nonzero;stroke:none" id="path40"/>
      <path d="m 26108.6,10971.4 -1195.4,-1427 c -25.4,-30.3 -62.7,-48 -102.4,-48.4 h -1 c -39.3,0 -76.6,17.2 -102.3,46.9 l -599.4,693.3 c -26.7,31.2 -23.3,78.1 7.7,104.8 31.2,26.7 78,23.4 104.7,-7.6 l 589,-681.5 1185.4,1414.9 c 26.3,31.4 73.2,35.4 104.6,9.1 31.4,-26.3 35.4,-73.1 9.1,-104.5" style="fill:#202831;fill-opacity:1;fill-rule:nonzero;stroke:none" id="path42"/>
      <path d="m 16860.3,10203.1 c 0,-41.1 -33.3,-74.2 -74.2,-74.2 -41.2,0 -74.2,33.1 -74.2,74.2 v 990.1 c 0,91.6 -73.4,167.1 -166.8,171.8 -602.3,30.7 -1172.8,380.9 -1459.4,586.8 -60.6,43.7 -142.1,43.3 -202.3,-0.8 -281.3,-205.5 -842.3,-555.3 -1442.1,-586 -93.1,-4.7 -166.2,-80 -166.2,-171.4 V 9525.9 c 0,-37.1 11.8,-73 34.5,-103.7 512.7,-695.9 1273.2,-1227.8 1576.3,-1424.2 57.1,-36.9 130.7,-36.9 187.5,0 193.7,125.3 576.1,388.3 962.1,741.2 30.3,27.6 77.2,25.5 105,-4.6 27.5,-30.4 25.4,-77.2 -4.9,-105 -393.9,-360.2 -783.9,-628.5 -981.4,-756.4 -53,-34.3 -113.7,-51.5 -174.5,-51.5 -60.7,0 -121.6,17.2 -174.6,51.5 -309.9,200.9 -1087.8,745.3 -1615.1,1461 -41.3,56.4 -63.4,122.5 -63.4,191.7 v 1667.7 c 0,170.5 134.9,310.7 307.1,319.6 561.2,28.9 1094.2,361.9 1362.1,557.6 112.2,82.3 263.6,83 376.5,1.7 273.3,-196.4 816.1,-530.4 1380.3,-559.3 172.6,-8.9 307.7,-149.3 307.7,-320 z m -553.3,768.2 -1195.6,-1427 c -25.5,-30.3 -62.8,-47.9 -102.5,-48.1 h -1 c -39.3,0 -76.4,17 -102,46.7 l -599.4,693.5 c -26.7,31 -23.4,77.9 7.6,104.6 31,26.9 77.9,23.5 104.8,-7.7 l 589,-681.4 1185.2,1414.9 c 26.3,31.4 73.1,35.4 104.5,9.1 31.4,-26.3 35.7,-73.2 9.4,-104.6 z m 1232,1357.6 c -994.1,1.5 -1986.9,659.9 -2367.4,942.8 -114.1,84.8 -272.7,84.2 -386.2,-1.7 -372.9,-282.5 -1347.5,-939.6 -2337.5,-941.1 -176.3,-0.2 -319.6,-144.2 -319.6,-320.9 V 9219.6 c 0,-67.6 20.5,-132.1 59.4,-186.2 867.6,-1208.5 2224,-2118.2 2618.9,-2368 52.2,-33.1 112.2,-49.7 172,-49.7 59.6,0 119,16.6 171.2,49.2 397,249.9 1761.4,1159.1 2647.6,2367.2 39.4,53.9 61.3,120.9 61.3,188.8 V 12008 c 0,176.7 -143.4,320.7 -319.7,320.9" style="fill:#202831;fill-opacity:1;fill-rule:nonzero;stroke:none" id="path44"/>
      <path d="m 7908.51,9221 c 0,-36.6 -11.58,-72.5 -32.57,-101.1 C 7005.38,7933 5660.45,7036.9 5268.98,6790.5 c -56.09,-35.2 -128.54,-35.2 -184.54,0.3 -389.33,246.3 -1725.85,1142.4 -2577.81,2329.1 -20.64,28.7 -31.55,63.2 -31.55,99.7 v 2788.3 c 0,95 76.86,172.4 171.37,172.6 1035.07,1.6 2042.07,679.7 2426.96,971.1 31.26,23.7 67.95,35.5 104.66,35.5 36.15,0 72.3,-11.5 103.23,-34.5 392.47,-291.8 1417.44,-970.7 2455.84,-972.1 94.5,-0.1 171.37,-77.5 171.37,-172.6 z m -171.16,3107.9 c -994.15,1.4 -1986.83,659.9 -2367.46,942.9 -113.97,84.7 -272.74,84 -386.09,-1.8 -372.98,-282.5 -1347.41,-939.5 -2337.58,-941.1 -176.23,-0.2 -319.6,-144.2 -319.6,-321 V 9219.6 c 0,-67.7 20.53,-132.2 59.4,-186.3 867.58,-1208.4 2223.98,-2118 2619.03,-2368 52.17,-33 112.01,-49.5 171.84,-49.5 59.57,0 119.16,16.3 171.18,49.1 397.08,249.9 1761.52,1159.1 2647.6,2367.2 39.53,53.9 61.31,121 61.31,188.9 v 2786.9 c 0,176.8 -143.4,320.8 -319.63,321" style="fill:#202831;fill-opacity:1;fill-rule:nonzero;stroke:none" id="path46"/>
      <path d="m 6751.01,11513.2 c -564.34,28.9 -1107.07,362.8 -1380.35,559.2 -112.91,81.2 -264.25,80.6 -376.61,-1.6 C 4726.28,11874.9 4193.28,11542 3632.12,11513.2 3459.91,11504.4 3325,11364 3325,11193.6 V 9525.9 c 0,-69.1 21.93,-135.4 63.42,-191.8 527.27,-715.6 1305.17,-1260 1615.13,-1460.8 53,-34.3 113.75,-51.5 174.51,-51.5 60.74,0 121.51,17.2 174.52,51.5 197.47,127.9 587.57,396.2 981.45,756.3 30.27,27.6 32.38,74.6 4.71,104.9 -27.67,30.3 -74.62,32.3 -104.87,4.7 -385.96,-352.9 -768.39,-615.9 -961.99,-741.3 -57,-36.9 -130.63,-36.9 -187.59,0 -303.14,196.4 -1063.56,728.3 -1576.34,1424.3 -22.56,30.6 -34.49,66.5 -34.49,103.7 v 1667.7 c 0,91.3 73.03,166.6 166.28,171.3 599.67,30.8 1160.84,380.4 1441.96,586.1 60.36,44.2 141.65,44.5 202.27,0.9 286.54,-206 857.17,-556.1 1459.44,-587 93.48,-4.7 166.7,-80.2 166.7,-171.7 V 10203 c 0,-41 33.24,-74.2 74.23,-74.2 41.01,0 74.23,33.2 74.23,74.2 v 990.2 c 0,170.6 -135.09,311.2 -307.56,320" style="fill:#202831;fill-opacity:1;fill-rule:nonzero;stroke:none" id="path48"/>
      <path d="m 6391.46,11066.7 -1185.3,-1414.9 -589,681.6 c -26.82,31 -73.68,34.4 -104.7,7.6 -31.03,-26.8 -34.45,-73.7 -7.63,-104.7 l 599.33,-693.5 c 25.7,-29.7 62.88,-46.7 102.14,-46.7 0.36,0 0.72,0 1.07,0 39.66,0.3 77,17.9 102.45,48.3 l 1195.44,1426.9 c 26.33,31.5 22.21,78.3 -9.23,104.6 -31.41,26.3 -78.25,22.2 -104.57,-9.2" style="fill:#202831;fill-opacity:1;fill-rule:nonzero;stroke:none" id="path50"/>
    </g>
  </g>
</svg>