<?xml version="1.0" encoding="UTF-8" standalone="no"?>
<!-- Created with Inkscape (http://www.inkscape.org/) -->

<svg
   version="1.1"
   id="svg2"
   xml:space="preserve"
   width="1600"
   height="1600"
   viewBox="0 0 1600 1600"
   sodipodi:docname="time.eps"
   xmlns:inkscape="http://www.inkscape.org/namespaces/inkscape"
   xmlns:sodipodi="http://sodipodi.sourceforge.net/DTD/sodipodi-0.dtd"
   xmlns="http://www.w3.org/2000/svg"
   xmlns:svg="http://www.w3.org/2000/svg"><defs
     id="defs6" /><sodipodi:namedview
     id="namedview4"
     pagecolor="#ffffff"
     bordercolor="#666666"
     borderopacity="1.0"
     inkscape:pageshadow="2"
     inkscape:pageopacity="0.0"
     inkscape:pagecheckerboard="0" /><g
     id="g8"
     inkscape:groupmode="layer"
     inkscape:label="ink_ext_XXXXXX"
     transform="matrix(1.3333333,0,0,-1.3333333,0,1600)"><g
       id="g10"
       transform="scale(0.1)"><path
         d="M 5744.98,8525 V 6282.38 c -139.54,-56.98 -237.47,-190.51 -237.47,-346.15 0,-207.45 173.98,-375.62 388.58,-375.62 132.66,0 249.65,64.36 319.76,162.43 h 1515.2 v 426.38 h -1515.2 c -46.07,64.45 -112.49,114 -190.24,140.6 V 8525 h -280.63"
         style="fill:#100f0d;fill-opacity:1;fill-rule:nonzero;stroke:none"
         id="path12" /><path
         d="m 9760.29,6015 c 0,2076.04 -1685.05,3765 -3756.26,3765 -963.42,0 -1843.17,-365.57 -2508.77,-965.41 l 432.55,-482.69 c 550.84,496.42 1278.91,798.96 2076.22,798.96 1714.1,0 3108.64,-1397.78 3108.64,-3115.86 0,-1147.19 -622.09,-2151.04 -1545.57,-2691.86 L 7342.47,3743.02 6608.49,2617.84 8141.22,2250 7873.2,2750.97 C 8999.83,3401.68 9760.29,4620.72 9760.29,6015"
         style="fill:#100f0d;fill-opacity:1;fill-rule:nonzero;stroke:none"
         id="path14" /><path
         d="m 3749.94,3005.17 c 274.03,-206.71 577.12,-376.63 901.86,-502.66 l 242.89,601.88 c -276.25,106.14 -533.65,250.65 -765.69,427.08 l -379.06,-526.3"
         style="fill:#100f0d;fill-opacity:1;fill-rule:nonzero;stroke:none"
         id="path16" /><path
         d="m 2895.4,6015 c 0,35.96 0.73,71.75 1.94,107.42 l -647.16,24.41 c -1.51,-43.77 -2.41,-87.69 -2.41,-131.83 0,-355.02 49.33,-698.69 141.39,-1024.57 l 594.74,285.87 c -57.68,236.9 -88.5,484.25 -88.5,738.7"
         style="fill:#100f0d;fill-opacity:1;fill-rule:nonzero;stroke:none"
         id="path18" /><path
         d="m 2579.36,4468.67 c 144.55,-320.36 332.75,-616.8 556.65,-882.05 l 488.17,426.17 c -208.13,248.14 -378.38,529.11 -501.86,834.01 l -542.96,-378.13"
         style="fill:#100f0d;fill-opacity:1;fill-rule:nonzero;stroke:none"
         id="path20" /><path
         d="m 3467.01,7813.65 -528.55,374.72 c -285.3,-403.1 -493.55,-864.63 -603.05,-1362.88 l 626.44,-168.79 c 88.81,423.44 263.53,815.55 505.16,1156.95"
         style="fill:#100f0d;fill-opacity:1;fill-rule:nonzero;stroke:none"
         id="path22" /><path
         d="m 6004.03,2899.14 c -182.49,0 -361.32,15.99 -535.27,46.37 l -119.98,-638.07 c 212.85,-37.68 431.79,-57.44 655.25,-57.44 110.85,0 220.51,5.13 328.96,14.6 l -203.21,637.3 c -41.73,-1.68 -83.61,-2.76 -125.75,-2.76"
         style="fill:#100f0d;fill-opacity:1;fill-rule:nonzero;stroke:none"
         id="path24" /></g></g></svg>
